<svg width="48" height="48" viewBox="0 0 48 48" fill="none" xmlns="http://www.w3.org/2000/svg">
<path d="M5.50999 29.4322L6.54399 33.2962C7.75199 37.8062 8.35799 40.0622 9.72799 41.5242C10.8093 42.6778 12.2082 43.4851 13.748 43.8442C15.7 44.3002 17.956 43.6962 22.468 42.4882C26.976 41.2802 29.232 40.6762 30.694 39.3062C30.8153 39.1915 30.9327 39.0742 31.046 38.9542C30.3648 38.8928 29.6877 38.7926 29.018 38.6542C27.626 38.3782 25.972 37.9342 24.016 37.4102L23.802 37.3522L23.752 37.3402C21.624 36.7682 19.846 36.2922 18.426 35.7802C16.932 35.2402 15.576 34.5742 14.422 33.4942C12.8346 32.007 11.7238 30.0826 11.23 27.9642C10.87 26.4262 10.974 24.9182 11.254 23.3562C11.522 21.8582 12.002 20.0622 12.578 17.9122L13.648 13.9242L13.684 13.7842C9.84399 14.8182 7.82199 15.4302 6.47399 16.6922C5.31897 17.7743 4.51089 19.1747 4.15199 20.7162C3.69599 22.6662 4.29999 24.9222 5.50999 29.4322Z" fill="white"/>
<path fill-rule="evenodd" clip-rule="evenodd" d="M41.66 21.43L40.624 25.294C39.414 29.804 38.81 32.06 37.44 33.522C36.359 34.6763 34.96 35.4844 33.42 35.844C33.2267 35.8893 33.03 35.924 32.83 35.948C31 36.174 28.766 35.576 24.702 34.488C20.192 33.278 17.936 32.674 16.474 31.304C15.3193 30.2224 14.5113 28.8228 14.152 27.282C13.696 25.33 14.3 23.076 15.51 18.566L16.544 14.702L17.032 12.892C17.942 9.55999 18.554 7.72599 19.728 6.47199C20.8093 5.31839 22.2082 4.51107 23.748 4.15199C25.7 3.69599 27.956 4.29999 32.468 5.50999C36.976 6.71799 39.232 7.32199 40.694 8.68999C41.849 9.7721 42.6571 11.1725 43.016 12.714C43.472 14.666 42.868 16.92 41.66 21.43ZM22.102 19.61C22.153 19.4197 22.2411 19.2413 22.3611 19.085C22.4811 18.9287 22.6307 18.7977 22.8014 18.6992C22.9721 18.6008 23.1605 18.5369 23.3558 18.5113C23.5512 18.4857 23.7497 18.4989 23.94 18.55L33.6 21.14C33.7953 21.1863 33.9793 21.2713 34.1412 21.3901C34.303 21.5088 34.4394 21.6588 34.5422 21.8312C34.645 22.0036 34.7122 22.1949 34.7397 22.3937C34.7673 22.5925 34.7546 22.7948 34.7025 22.9887C34.6505 23.1825 34.56 23.364 34.4365 23.5222C34.3131 23.6805 34.1591 23.8123 33.9837 23.91C33.8084 24.0077 33.6152 24.0691 33.4156 24.0908C33.2161 24.1124 33.0142 24.0938 32.822 24.036L23.162 21.448C22.7781 21.3449 22.4508 21.0936 22.2521 20.7493C22.0533 20.4051 21.9993 19.994 22.102 19.61ZM20.55 25.408C20.6531 25.0241 20.9044 24.6968 21.2486 24.4981C21.5929 24.2993 22.002 24.2453 22.386 24.348L28.182 25.902C28.3782 25.9473 28.5633 26.0316 28.7263 26.15C28.8892 26.2684 29.0267 26.4183 29.1304 26.591C29.2341 26.7636 29.302 26.9553 29.3301 27.1548C29.3581 27.3542 29.3457 27.5573 29.2935 27.7518C29.2414 27.9463 29.1506 28.1284 29.0267 28.2871C28.9027 28.4458 28.748 28.5779 28.5718 28.6755C28.3957 28.7732 28.2017 28.8343 28.0014 28.8554C27.8011 28.8764 27.5986 28.8569 27.406 28.798L21.61 27.246C21.4197 27.1949 21.2413 27.1069 21.085 26.9869C20.9287 26.8669 20.7977 26.7173 20.6992 26.5466C20.6008 26.3759 20.5369 26.1875 20.5113 25.9921C20.4857 25.7968 20.4989 25.5983 20.55 25.408Z" fill="white"/>
</svg>
