<svg width="40" height="40" viewBox="0 0 40 40" fill="none" xmlns="http://www.w3.org/2000/svg">
<path d="M35.66 0C34.5991 0 33.5817 0.421427 32.8316 1.17157C32.0814 1.92172 31.66 2.93913 31.66 4C31.66 5.06087 32.0814 6.07828 32.8316 6.82843C33.5817 7.57857 34.5991 8 35.66 8C36.7209 8 37.7383 7.57857 38.4884 6.82843C39.2386 6.07828 39.66 5.06087 39.66 4C39.66 2.93913 39.2386 1.92172 38.4884 1.17157C37.7383 0.421427 36.7209 0 35.66 0ZM29.66 20L30.66 9L19.66 10L23.16 13.5C22.22 14.3 21.14 14.5 19.78 14.76C17.68 15.14 15.08 15.64 12.98 18.62C10.88 21.6 11.32 24.22 11.68 26.32C11.98 28.12 12.2 29.42 11.04 31.08C9.88 32.72 8.58 32.96 6.8 33.3C4.7 33.68 2.1 34.16 0 37.16L3.28 39.46C4.44 37.82 5.72 37.58 7.52 37.24C9.62 36.86 12.22 36.38 14.32 33.38C16.42 30.4 15.98 27.78 15.62 25.68C15.32 23.88 15.1 22.58 16.26 20.92C17.42 19.28 18.72 19.04 20.5 18.7C22.18 18.4 24.18 18 25.98 16.34L29.64 20H29.66ZM3.08 13.42L6.66 9.82L10.24 13.42L13.08 10.58L9.48 7L13.08 3.42L10.24 0.58L6.66 4.18L3.08 0.58L0.24 3.42L3.84 7L0.24 10.58L3.08 13.42ZM36.24 24.58L31.66 29.18L27.08 24.58L24.24 27.42L28.84 32L24.24 36.58L27.08 39.42L31.66 34.82L36.24 39.42L39.08 36.58L34.48 32L39.08 27.42L36.24 24.58Z" fill="white"/>
</svg>
