<svg width="48" height="48" viewBox="0 0 48 48" fill="none" xmlns="http://www.w3.org/2000/svg">
<g clip-path="url(#clip0_1318_2748)">
<path d="M29.24 5.32404C29.6196 5.43025 29.9745 5.61023 30.2846 5.8537C30.5946 6.09717 30.8536 6.39936 31.0468 6.74298C31.2399 7.0866 31.3635 7.46492 31.4104 7.85632C31.4572 8.24772 31.4265 8.64452 31.32 9.02404L22.458 40.598C22.2431 41.3642 21.7327 42.0137 21.039 42.4036C20.3453 42.7935 19.5252 42.8919 18.759 42.677C17.9928 42.4622 17.3433 41.9518 16.9534 41.2581C16.5635 40.5644 16.4651 39.7442 16.68 38.978L25.542 7.40004C25.6484 7.0206 25.8285 6.66585 26.0721 6.35605C26.3156 6.04625 26.6179 5.78747 26.9615 5.5945C27.3051 5.40153 27.6833 5.27814 28.0746 5.23139C28.4659 5.18464 28.8626 5.21544 29.242 5.32204L29.24 5.32404ZM15.12 13.394C15.6818 13.9565 15.9973 14.719 15.9973 15.514C15.9973 16.309 15.6818 17.0715 15.12 17.634L8.75996 24L15.124 30.364C15.6865 30.9268 16.0024 31.69 16.0022 32.4857C16.002 33.2815 15.6858 34.0445 15.123 34.607C14.5602 35.1696 13.797 35.4855 13.0013 35.4853C12.2055 35.4851 11.4425 35.1688 10.88 34.606L2.39396 26.12C1.83216 25.5575 1.5166 24.795 1.5166 24C1.5166 23.205 1.83216 22.4425 2.39396 21.88L10.878 13.394C11.1566 13.1153 11.4874 12.8941 11.8515 12.7432C12.2156 12.5923 12.6058 12.5147 13 12.5147C13.3941 12.5147 13.7844 12.5923 14.1485 12.7432C14.5126 12.8941 14.8414 13.1153 15.12 13.394ZM32.88 17.634C32.5852 17.3594 32.3488 17.0282 32.1848 16.6602C32.0209 16.2922 31.9327 15.8949 31.9256 15.4921C31.9185 15.0893 31.9926 14.6892 32.1435 14.3156C32.2944 13.9421 32.5189 13.6028 32.8038 13.3179C33.0887 13.033 33.428 12.8084 33.8016 12.6575C34.1751 12.5067 34.5752 12.4326 34.9781 12.4397C35.3809 12.4468 35.7781 12.5349 36.1461 12.6989C36.5141 12.8629 36.8453 13.0993 37.12 13.394L45.606 21.878C46.1684 22.4406 46.4843 23.2035 46.4843 23.999C46.4843 24.7945 46.1684 25.5575 45.606 26.12L37.122 34.606C36.8434 34.8847 36.5127 35.1058 36.1488 35.2566C35.7848 35.4075 35.3947 35.4852 35.0007 35.4853C34.6067 35.4854 34.2165 35.4079 33.8525 35.2572C33.4884 35.1065 33.1576 34.8856 32.879 34.607C32.6003 34.3285 32.3792 33.9978 32.2284 33.6338C32.0775 33.2699 31.9998 32.8797 31.9997 32.4857C31.9996 32.0917 32.0771 31.7016 32.2278 31.3375C32.3785 30.9735 32.5994 30.6427 32.878 30.364L39.242 24L32.88 17.634Z" fill="white"/>
</g>
<defs>
<clipPath id="clip0_1318_2748">
<rect width="48" height="48" fill="white"/>
</clipPath>
</defs>
</svg>
