<svg width="40" height="40" viewBox="0 0 40 40" fill="none" xmlns="http://www.w3.org/2000/svg">
<path d="M0.55 16.388L8.95 7.98796C9.41667 7.52129 9.96667 7.18796 10.6 6.98796C11.2333 6.78796 11.8833 6.75462 12.55 6.88796L15.15 7.43796C13.35 9.57129 11.9333 11.5046 10.9 13.238C9.86667 14.9713 8.86667 17.0713 7.9 19.538L0.55 16.388ZM10.8 20.938C11.5667 18.538 12.6087 16.2713 13.926 14.138C15.2433 12.0046 16.8347 10.0046 18.7 8.13796C21.6333 5.20462 24.9833 3.01329 28.75 1.56396C32.5167 0.114623 36.0333 -0.327377 39.3 0.237956C39.8667 3.50462 39.4333 7.02129 38 10.788C36.5667 14.5546 34.3833 17.9046 31.45 20.838C29.6167 22.6713 27.6167 24.2633 25.45 25.614C23.2833 26.9646 21 28.0226 18.6 28.788L10.8 20.938ZM27.426 16.088C28.542 16.088 29.4833 15.7046 30.25 14.938C31.0167 14.1713 31.4 13.23 31.4 12.114C31.4 10.998 31.0167 10.056 30.25 9.28796C29.4833 8.51996 28.542 8.13662 27.426 8.13796C26.31 8.13929 25.368 8.52262 24.6 9.28796C23.832 10.0533 23.4487 10.9953 23.45 12.114C23.4513 13.2326 23.8347 14.174 24.6 14.938C25.3653 15.702 26.3073 16.0853 27.426 16.088ZM23.2 38.988L20 31.638C22.4667 30.6713 24.5753 29.6713 26.326 28.638C28.0767 27.6046 30.018 26.188 32.15 24.388L32.65 26.988C32.7833 27.6546 32.75 28.3133 32.55 28.964C32.35 29.6146 32.0167 30.1726 31.55 30.638L23.2 38.988ZM3.75 27.338C4.91667 26.1713 6.33333 25.5793 8 25.562C9.66667 25.5446 11.0833 26.12 12.25 27.288C13.4167 28.456 14 29.8726 14 31.538C14 33.2033 13.4167 34.62 12.25 35.788C11.4167 36.6213 10.0247 37.338 8.074 37.938C6.12333 38.538 3.432 39.0713 0 39.538C0.466667 36.1046 1 33.4213 1.6 31.488C2.2 29.5546 2.91667 28.1713 3.75 27.338Z" fill="white"/>
</svg>
