<svg width="48" height="48" viewBox="0 0 48 48" fill="none" xmlns="http://www.w3.org/2000/svg">
<path d="M38.7844 36.5297C43.2 32.1141 43.2 24.9235 38.7844 20.5125L26.5594 8.27817C26.4797 8.19848 26.3719 8.15629 26.2594 8.15629C26.1469 8.15629 26.039 8.19848 25.9594 8.27817L24.2297 10.0079C24.1509 10.0869 24.1068 10.1939 24.1068 10.3055C24.1068 10.4171 24.1509 10.5241 24.2297 10.6032L36.4547 22.8375C37.9734 24.3563 38.8078 26.3766 38.8078 28.5235C38.8078 30.6704 37.9734 32.6907 36.4547 34.2047C34.9359 35.7235 32.9156 36.5579 30.7734 36.5579C28.6265 36.5579 26.6109 35.7235 25.0922 34.2047L12.6281 21.736L10.6078 19.7157C8.71873 17.8266 8.71873 14.7563 10.6078 12.8672C11.5219 11.9532 12.7359 11.4516 14.0297 11.4516C15.3234 11.4516 16.5375 11.9532 17.4515 12.8672L29.8172 25.2375C30.1265 25.5516 30.3 25.9641 30.3 26.4047V26.4094C30.3 26.85 30.1265 27.2579 29.8172 27.5672C29.5031 27.8813 29.0906 28.05 28.65 28.05C28.214 28.05 27.8015 27.8766 27.4922 27.5672L17.3906 17.4563C17.3109 17.3766 17.2031 17.3344 17.0906 17.3344C16.9781 17.3344 16.8703 17.3766 16.7906 17.4563L15.0609 19.186C14.9822 19.265 14.938 19.3721 14.938 19.4836C14.938 19.5952 14.9822 19.7022 15.0609 19.7813L25.1672 29.8875C26.1 30.8204 27.3375 31.3313 28.6547 31.3313C29.9719 31.3313 31.214 30.8157 32.1422 29.8875C34.0687 27.961 34.064 24.8297 32.1422 22.9032L30.9375 21.7032L19.7765 10.5375C19.0232 9.77972 18.1268 9.17901 17.1395 8.77024C16.1522 8.36147 15.0936 8.15279 14.025 8.15629C11.8547 8.15629 9.8156 9.00473 8.28279 10.5375C6.69841 12.1266 5.90623 14.2079 5.90623 16.2891C5.90623 18.3704 6.69841 20.4516 8.28279 22.036L22.7672 36.5297C24.9047 38.6625 27.75 39.8438 30.7734 39.8438C33.8015 39.8485 36.6469 38.6672 38.7844 36.5297Z" fill="white"/>
</svg>
